<svg width="97.75" height="97.75" xmlns="http://www.w3.org/2000/svg">

 <g>
  <title>background</title>
  <rect fill="none" id="canvas_background" height="402" width="582" y="-1" x="-1"/>
 </g>
 <g>
  <title>Layer 1</title>
  <g id="svg_1">
   <path fill="#ffffff" id="svg_2" d="m48.875,0c-26.993,0 -48.875,21.882 -48.875,48.875s21.882,48.875 48.875,48.875s48.875,-21.882 48.875,-48.875s-21.882,-48.875 -48.875,-48.875zm18.646,24.89l-6.76,0.003c-5.301,0 -6.326,2.519 -6.326,6.215l0,8.15l12.641,0l-0.006,12.765l-12.634,0l0,32.758l-13.185,0l0,-32.758l-11.022,0l0,-12.765l11.022,0l0,-9.414c0,-10.925 6.675,-16.875 16.42,-16.875l9.851,0.015l0,11.906l-0.001,0z"/>
  </g>
  <g id="svg_3"/>
  <g id="svg_4"/>
  <g id="svg_5"/>
  <g id="svg_6"/>
  <g id="svg_7"/>
  <g id="svg_8"/>
  <g id="svg_9"/>
  <g id="svg_10"/>
  <g id="svg_11"/>
  <g id="svg_12"/>
  <g id="svg_13"/>
  <g id="svg_14"/>
  <g id="svg_15"/>
  <g id="svg_16"/>
  <g id="svg_17"/>
 </g>
</svg>