<svg width="24" height="24" xmlns="http://www.w3.org/2000/svg">

 <g>
  <title>background</title>
  <rect fill="none" id="canvas_background" height="402" width="582" y="-1" x="-1"/>
 </g>
 <g>
  <title>Layer 1</title>
  <path fill="#ffffff" id="svg_1" d="m12,24c6.624,0 12,-5.376 12,-12s-5.376,-12 -12,-12s-12,5.376 -12,12s5.376,12 12,12zm4.283,-12.857l1.718,0l0,-1.717l1.718,0l0,1.718l1.703,0l0,1.718l-1.703,0l0,1.718l-1.718,0l0,-1.718l-1.718,0l0,-1.719zm-7.704,-5.144c1.514,0 2.908,0.533 4.017,1.563l-1.626,1.578c-0.639,-0.625 -1.514,-0.924 -2.391,-0.924c-2.076,0 -3.736,1.718 -3.736,3.779s1.655,3.779 3.736,3.779c1.577,0 3.14,-0.924 3.392,-2.579l-3.392,0l0,-2.061l5.657,0c0.063,0.329 0.092,0.658 0.092,1.001c0,3.426 -2.299,5.864 -5.749,5.864l0,0.001c-3.329,0 -6.001,-2.686 -6.001,-6.001s2.672,-6 6.001,-6z"/>
 </g>
</svg>